<?xml version="1.0" encoding="UTF-8" standalone="no"?>
<svg
   width="400"
   height="176"
   viewBox="0 0 400 176"
   fill="none"
   version="1.1"
   id="svg22"
   sodipodi:docname="brayden.svg"
   inkscape:export-filename="brayden.svg"
   inkscape:export-xdpi="96"
   inkscape:export-ydpi="96"
   inkscape:version="1.4.2 (ebf0e94, 2025-05-08)"
   xmlns:inkscape="http://www.inkscape.org/namespaces/inkscape"
   xmlns:sodipodi="http://sodipodi.sourceforge.net/DTD/sodipodi-0.dtd"
   xmlns="http://www.w3.org/2000/svg"
   xmlns:svg="http://www.w3.org/2000/svg">
  <defs
     id="defs22" />
  <sodipodi:namedview
     id="namedview22"
     pagecolor="#ffffff"
     bordercolor="#000000"
     borderopacity="0.25"
     inkscape:showpageshadow="2"
     inkscape:pageopacity="0.0"
     inkscape:pagecheckerboard="0"
     inkscape:deskcolor="#d1d1d1"
     inkscape:zoom="2.03"
     inkscape:cx="208.62069"
     inkscape:cy="87.931034"
     inkscape:window-width="1912"
     inkscape:window-height="1040"
     inkscape:window-x="0"
     inkscape:window-y="0"
     inkscape:window-maximized="1"
     inkscape:current-layer="g22">
    <inkscape:page
       x="0"
       y="0"
       width="400"
       height="176"
       id="page2"
       margin="0"
       bleed="0" />
  </sodipodi:namedview>
  <g
     opacity="0.5"
     id="g22"
     transform="matrix(0.90373559,-0.14688185,0.1653211,0.80293658,-21.255998,50.520597)">
    <g
       id="g19">
      <path
         style="fill:#00ccff;stroke:none;stroke-width:0.894897;stroke-opacity:1;paint-order:markers fill stroke"
         id="path60"
         d="m 49.10529,154.29867 c -0.424525,-6.66835 -0.999143,-13.33194 -1.186678,-20.01352 -0.05735,-2.04332 -0.05442,-4.08784 -0.08163,-6.13176 -0.05151,-13.11317 0.778751,-26.20344 1.674578,-39.279966 0.364216,-6.020205 1.055659,-12.016035 1.905464,-17.987228 0.462924,-3.252743 0.914129,-6.332323 1.677468,-9.524752 0.306022,-1.279842 0.710642,-2.535081 1.065962,-3.802622 1.780422,-5.134452 3.934959,-10.243442 7.372663,-14.549904 0.469965,-0.588733 1.014945,-1.116009 1.522419,-1.674013 1.028589,-0.890539 2.137226,-2.053815 3.613214,-2.16468 0.294902,-0.02215 0.58926,0.05442 0.881602,0.09841 1.567463,0.235844 1.216475,0.198034 2.811583,0.715933 0.59208,0.256933 1.206829,0.468605 1.776238,0.770801 2.873267,1.524892 6.063438,4.132374 8.139143,6.59005 0.586901,0.694902 1.087296,1.455869 1.630945,2.183802 3.628715,5.449674 5.346742,11.812219 7.141294,18.006031 1.742409,7.26606 3.610523,14.504114 5.224787,21.79913 1.779575,8.266936 2.924486,16.650608 4.088431,25.017698 0.926632,6.48966 1.610028,13.00989 2.071427,19.54652 0.19865,3.02947 0.29916,6.06405 0.3256,9.09937 0.17494,2.36161 0.45068,4.72238 0.77983,7.06894 0.18472,1.32009 0.0979,0.67681 0.26148,1.92973 1.84327,14.09298 12.00794,12.81516 10.16466,-1.27782 v 0 c -0.17681,-1.34979 -0.0845,-0.66821 -0.2772,-2.0447 -0.27993,-1.91354 -0.46293,-3.84272 -0.68127,-5.76336 -0.0291,-3.23821 -0.13636,-6.47565 -0.34978,-9.70754 -0.47942,-6.75793 -1.18234,-13.49935 -2.14087,-20.20889 -1.2003,-8.62678 -2.38691,-17.269531 -4.22781,-25.791918 -1.66304,-7.501462 -3.57385,-14.94778 -5.382471,-22.416148 -2.144878,-7.381551 -4.308672,-14.896015 -8.805273,-21.292295 -0.798575,-1.023337 -1.539319,-2.092653 -2.395724,-3.070011 -3.077869,-3.512572 -7.371255,-6.873575 -11.60918,-8.935826 -0.95761,-0.465991 -1.982196,-0.785936 -2.973293,-1.178903 -2.605729,-0.653554 -3.804437,-1.149944 -6.547712,-1.041841 -4.7845,0.18854 -7.987894,2.259681 -11.256183,5.47885 -0.732857,0.841827 -1.511184,1.647562 -2.198571,2.525481 -4.109235,5.248246 -6.748936,11.418248 -8.849839,17.654648 -0.40962,1.494602 -0.872952,2.976043 -1.228859,4.483808 -0.801798,3.39674 -1.297286,6.728475 -1.787229,10.181879 -0.876428,6.177574 -1.587493,12.38058 -1.967806,18.608152 -0.914155,13.345474 -1.755513,26.705364 -1.696685,40.088214 0.03025,2.14711 0.02998,4.29484 0.09075,6.44132 0.184925,6.53244 0.709275,13.05223 1.176639,19.56893 0,14.20837 10.247889,14.20837 10.247889,0 z" />
      <g
         id="g5"
         transform="matrix(0.80119299,0,0,0.76375908,43.553027,25.356691)">
        <path
           style="fill:#00ccff;stroke:none;stroke-opacity:1;paint-order:markers fill stroke"
           id="path61"
           d="m 86.941546,30.006835 c 0.419414,8.400951 1.402258,16.76382 2.206721,25.134252 0.881493,9.17023 1.066344,18.384894 1.189733,27.590191 0.01299,1.618022 0.02895,3.236023 0.03896,4.854066 0.0306,4.947944 -0.01997,5.09626 0.15018,10.198777 0.177035,5.308869 0.533303,10.609209 0.8458,15.911169 0.545559,9.23672 0.753055,18.4876 1.071605,27.7336 0.154805,4.49562 0.30386,8.99167 0.389321,13.48923 0.0044,0.30021 0.0088,0.60042 0.01316,0.90063 0.2353,16.03345 11.572664,15.86707 11.337364,-0.16638 v 0 c -0.005,-0.31669 -0.009,-0.63339 -0.014,-0.95008 -0.0869,-4.55576 -0.23679,-9.11002 -0.39399,-13.66382 -0.32174,-9.33828 -0.53206,-18.68148 -1.08452,-28.01032 -0.30482,-5.17169 -0.65469,-10.34194 -0.82952,-15.520279 -0.16772,-4.967317 -0.11676,-5.115204 -0.14719,-10.013722 -0.0102,-1.63846 -0.0264,-3.276876 -0.0396,-4.915314 -0.12835,-9.516663 -0.32701,-19.04256 -1.24074,-28.522686 -0.770187,-8.010664 -1.691565,-16.013408 -2.154694,-24.049314 0,-16.035177 -11.338583,-16.035177 -11.338583,0 z" />
        <path
           style="fill:#00ccff;stroke:none;stroke-opacity:1;paint-order:markers fill stroke"
           id="path62"
           d="m 104.1934,101.86712 c 0.25328,-1.74574 0.18487,-3.535069 0.47001,-5.276959 0.0535,-0.32682 0.70208,-2.394748 0.70692,-2.410558 0.98745,-2.488548 1.87793,-5.096246 3.4647,-7.284661 0.96589,-1.332126 1.56567,-1.855861 2.71716,-3.030686 2.61815,-2.215996 5.72759,-3.860051 9.03102,-4.80008 0.61046,-0.173716 1.23798,-0.280672 1.85697,-0.421007 4.10267,0.0329 6.25926,1.864334 9.04002,4.620254 3.67318,4.029613 5.2395,9.300103 6.62115,14.447928 1.84248,7.843709 2.17221,15.925659 2.44489,23.946169 0.16978,6.95348 0.14423,13.90967 0.12672,20.86461 -0.0115,3.63225 -0.0261,7.26449 -0.033,10.89675 -0.003,1.99393 -0.004,3.98787 -0.004,5.98181 -0.003,16.03518 11.33606,16.03697 11.33858,0.002 v 0 c 3.2e-4,-1.98735 8.4e-4,-3.9747 0.004,-5.96204 0.007,-3.62994 0.0216,-7.25985 0.033,-10.88977 0.0178,-7.09367 0.0433,-14.18864 -0.13331,-21.28075 -0.30596,-8.89376 -0.72147,-17.84979 -2.83526,-26.532689 -0.37574,-1.367949 -0.70763,-2.748704 -1.12721,-4.103847 -1.77067,-5.718829 -4.4386,-11.199201 -8.59913,-15.564744 -1.97682,-1.849415 -2.85115,-2.840163 -5.18411,-4.302306 -3.21963,-2.017851 -6.75701,-3.25748 -10.58086,-3.380863 -1.26106,-0.04069 -2.51849,0.158045 -3.77774,0.237068 -0.9759,0.245528 -1.96473,0.444407 -2.92769,0.736583 -5.00635,1.518997 -9.64077,4.139144 -13.49292,7.673075 -1.89109,2.013229 -2.61706,2.632573 -4.197403,4.957043 -2.071265,3.046541 -3.40345,6.528094 -4.656219,9.966735 -0.577579,1.988927 -0.791895,2.501669 -1.124227,4.564226 -0.252123,1.56476 -0.229714,3.17019 -0.406641,4.743399 -2.267716,15.87402 8.95691,17.47753 11.22462,1.60352 z" />
      </g>
      <path
         style="fill:#00ccff;stroke:none;stroke-width:0.894897;stroke-opacity:1;paint-order:markers fill stroke"
         id="path63"
         d="m 46.899806,115.91534 c 4.827613,0.0455 9.634344,-0.48007 14.433564,-0.92333 3.919127,-0.36768 7.846737,-0.63474 11.780958,-0.77685 2.696789,-0.018 5.386912,-0.20763 8.080261,-0.32366 2.997243,0.01 5.967085,-0.27389 8.933906,-0.65811 1.583518,-0.1723 3.168675,-0.28687 4.746117,-0.51063 14.340568,-2.05333 12.859588,-11.99471 -1.48098,-9.94138 v 0 c -1.530254,0.22184 -3.073059,0.2994 -4.607563,0.49175 -2.671855,0.34621 -5.341705,0.60346 -8.042477,0.58126 -2.669545,0.11556 -5.335537,0.3039 -8.008513,0.32081 -4.128465,0.1506 -8.250273,0.42785 -12.362945,0.81425 -4.479597,0.41378 -8.966185,0.91831 -13.472328,0.87904 -14.492703,0 -14.492703,10.04685 0,10.04685 z" />
      <g
         id="g8"
         transform="matrix(0.72638954,0,0,0.76423871,66.900787,22.244158)">
        <path
           style="fill:#00ccff;stroke:none;stroke-opacity:1;paint-order:markers fill stroke"
           id="path67"
           d="m 334.55434,77.044812 c -4.43379,-0.252414 -8.92019,-0.521509 -13.28728,0.519393 -1.42593,0.339874 -2.80532,0.851688 -4.20798,1.277532 -1.38427,0.619489 -2.80248,1.168117 -4.1528,1.858468 -4.46627,2.283373 -8.75817,5.35006 -12.14143,9.073427 -0.8055,0.88648 -1.51526,1.85546 -2.27289,2.78318 -0.73754,1.27432 -1.54557,2.51037 -2.21263,3.82296 -2.31745,4.560028 -4.22675,10.346648 -5.24995,15.367558 -0.26116,1.28151 -0.43496,2.57927 -0.65245,3.86891 -1.30601,8.13582 -0.24911,16.29379 1.38983,24.28821 0.87302,4.15661 1.86139,7.71012 4.46701,11.16336 1.44215,1.9113 2.75606,3.02351 4.47156,4.64326 4.24151,3.68229 9.35054,6.02037 14.79424,7.29722 1.31236,0.30782 2.64663,0.51339 3.96995,0.77008 5.73493,0.87377 11.48898,0.34346 17.2012,-0.35814 15.91158,-1.98712 14.50647,-13.2383 -1.40511,-11.25118 v 0 c -4.5386,0.57786 -9.11312,1.06721 -13.68305,0.46937 -4.99885,-0.92087 -9.15156,-1.88296 -13.14388,-5.21945 -1.15685,-1.06003 -2.86436,-2.44764 -3.70218,-3.80613 -1.10836,-1.79717 -1.29277,-4.0315 -1.86671,-6.00754 -1.38754,-6.62247 -2.35325,-13.38868 -1.3058,-20.14159 0.16649,-1.03542 0.29781,-2.07711 0.49946,-3.10626 1.00396,-5.12395 2.87406,-10.09937 5.28337,-14.718618 0.47056,-0.60791 0.9036,-1.24681 1.41168,-1.82374 3.18166,-3.61283 7.37825,-6.20263 11.72556,-8.16442 0.89939,-0.3036 1.78078,-0.666966 2.69818,-0.910799 3.46094,-0.91987 7.04054,-0.545415 10.56426,-0.385293 15.99443,1.142462 16.80227,-10.167309 0.80784,-11.309768 z" />
        <path
           style="fill:#00ccff;stroke:none;stroke-opacity:1;paint-order:markers fill stroke"
           id="path68"
           d="m 338.66568,83.347869 c 0,5.68363 0,11.367263 0,17.050891 0.13968,7.97714 0.45285,15.95393 0.82546,23.92382 0.12509,4.87527 1.19952,9.64297 2.05697,14.42237 0.58545,3.26333 0.53836,3.06367 1.03614,6.20047 0.14372,0.87484 0.27901,1.7511 0.43115,2.62452 0.33176,1.90456 0.47612,2.68378 0.96604,4.54388 0.42384,1.60919 0.94537,3.18978 1.36997,4.79911 0.72175,2.49889 1.10826,5.06934 1.63233,7.61064 0.34684,1.1604 0.63735,2.4814 1.54246,3.3801 0.89876,0.8924 2.07643,1.45086 3.11465,2.17629 15.04689,5.54239 18.96595,-5.09737 3.91906,-10.63976 v 0 c 2.3118,1.9542 1.85928,1.0043 2.60604,2.91244 0.0225,0.0575 -0.0577,-0.10908 -0.0866,-0.16362 -0.5926,-2.72831 -0.9735,-5.50551 -1.77029,-8.1903 -0.95981,-3.58634 -2.1626,-7.11101 -2.52679,-10.83292 -0.53293,-3.34884 -1.12022,-6.68332 -1.73467,-10.0182 -0.41033,-2.22704 -0.78489,-3.98312 -1.01666,-6.22545 -0.10754,-1.04034 -0.14245,-2.08692 -0.21368,-3.13037 -0.36614,-7.79301 -0.66893,-15.59303 -0.81303,-23.39302 0,-5.683628 0,-11.367261 0,-17.050891 0,-16.035178 -11.33858,-16.035178 -11.33858,0 z" />
      </g>
      <g
         id="g9"
         transform="matrix(0.86973161,0,0,0.83506281,16.257576,9.3342147)">
        <path
           style="fill:#00ccff;stroke:none;stroke-opacity:1;paint-order:markers fill stroke"
           id="path70"
           d="m 432.16059,14.397721 c -0.59761,7.487723 -1.50587,14.945642 -2.2417,22.41994 -0.80566,8.183598 -0.80437,8.719598 -1.44514,16.963042 -1.02724,15.645912 -0.95941,31.333899 -0.69582,47.002237 0.18195,10.86226 1.1893,21.68499 1.91587,32.51871 0.33039,4.83803 0.52355,9.68336 0.597,14.5317 0.0228,1.97115 0.0184,3.94247 0.0128,5.9137 -0.0454,16.03511 11.29314,16.06721 11.33854,0.0321 v 0 c 0.006,-2.03957 0.0101,-4.07923 -0.014,-6.11872 -0.0774,-5.0438 -0.2773,-10.08456 -0.62111,-15.11766 -0.71417,-10.64465 -1.7061,-21.27841 -1.89205,-31.95079 -0.25822,-15.311859 -0.33133,-30.642909 0.66339,-45.93341 0.6259,-8.0679 0.6282,-8.642301 1.41775,-16.66229 0.74595,-7.577211 1.66655,-15.137865 2.26972,-22.728929 1.22977,-15.98794591 -10.07541,-16.8575755 -11.30525,-0.86963 z" />
        <path
           style="fill:#00ccff;stroke:none;stroke-opacity:1;paint-order:markers fill stroke"
           id="path71"
           d="m 427.31044,80.116476 c -3.09293,0.235447 -6.1904,0.577173 -9.18608,1.419896 -2.90894,0.818323 -4.12551,1.376843 -7.00235,2.495294 -5.24907,2.174239 -10.32237,4.798638 -14.68376,8.483429 -3.25086,2.746536 -3.6933,3.563366 -6.55216,6.917676 -4.81434,6.589649 -9.14052,13.671139 -11.9494,21.370439 -0.46115,1.26405 -0.82038,2.56298 -1.23057,3.84447 -0.29946,1.38999 -0.69791,2.76229 -0.89836,4.16997 -0.78147,5.48783 -0.45853,12.24664 1.03902,17.60293 0.36692,1.31234 0.89125,2.57549 1.33688,3.86323 2.03238,4.79389 4.19373,9.73243 7.67172,13.6929 2.75875,3.14144 3.52081,3.34113 6.95265,5.67477 6.66749,3.42589 13.70494,4.67195 21.1586,4.22592 1.46821,-0.0879 2.92596,-0.30352 4.38894,-0.45528 4.56096,-0.69718 9.19131,-1.57209 13.42832,-3.48105 2.34082,-1.05463 3.71646,-1.95919 5.89807,-3.26322 2.85729,-1.81837 5.6197,-3.77565 8.48229,-5.58486 13.55337,-8.56931 7.49395,-18.15299 -6.05942,-9.58368 v 0 c -2.79115,1.76537 -5.49549,3.65798 -8.26793,5.45263 -1.03927,0.63025 -3.00396,1.86689 -4.16542,2.4126 -3.30618,1.55342 -6.96723,2.19589 -10.53999,2.77526 -1.13688,0.13056 -2.26921,0.30984 -3.41064,0.39168 -5.1241,0.3674 -10.01134,-0.2781 -14.7219,-2.38926 -1.87106,-1.12802 -2.58191,-1.37976 -4.09592,-3.00951 -2.80322,-3.01752 -4.39574,-6.96592 -6.03996,-10.66857 -0.7854,-2.10753 -1.2674,-3.09823 -1.64364,-5.34259 -0.18423,-1.099 -0.26243,-2.21404 -0.34027,-3.32566 -0.22934,-3.27486 -0.24354,-6.55976 0.64135,-9.75053 0.30745,-0.99597 0.57123,-2.00648 0.92236,-2.98791 2.36242,-6.6031 6.07801,-12.6565 10.12549,-18.3421 2.12784,-2.58341 2.38198,-3.12313 4.8093,-5.2432 3.48798,-3.046479 7.63692,-5.111239 11.87847,-6.892429 2.22021,-0.876779 3.31557,-1.373022 5.52051,-2.029336 2.36908,-0.705169 4.8351,-0.93397 7.28803,-1.13044 15.99966,-1.066644 15.24543,-12.380113 -0.75423,-11.313469 z" />
      </g>
      <g
         id="g7"
         transform="matrix(0.79546056,0,0,0.66772198,45.871603,34.166523)">
        <g
           id="g6">
          <path
             style="fill:#00ccff;stroke:none;stroke-opacity:1;paint-order:markers fill stroke"
             id="path64"
             d="m 162.30906,84.83239 c -0.55851,6.368243 -0.0576,12.754752 0.44153,19.1074 0.93762,9.26051 1.84575,18.52907 3.03036,27.76222 0.97562,6.8472 1.91375,13.6996 2.68045,20.57361 0.34995,3.86329 0.67652,7.72841 1.05584,11.58912 0.0446,0.28915 -0.15793,0.84689 0.13391,0.86744 3.72207,0.26217 7.56777,0.81108 11.19364,-0.0696 0.85981,-0.20882 0.045,-1.76983 0.0215,-2.65432 -0.0699,-2.63522 -0.68637,-5.23244 -1.21287,-7.80084 -1.59445,-7.51636 -2.97601,-15.07598 -4.46632,-22.61362 -0.74698,-4.04346 -1.60097,-8.07961 -2.01948,-12.17513 -0.19375,-1.89604 -0.23979,-3.00606 -0.35193,-4.89789 -0.10076,-2.04142 -0.14814,-4.08502 -0.1711,-6.12864 -0.006,-0.56034 -0.071,-1.12385 -0.0117,-1.68108 0.0441,-0.41432 0.20951,-0.80658 0.3192,-1.20854 0.21198,-0.77678 0.43052,-1.55176 0.64578,-2.32764 1.97177,-5.873268 4.95176,-11.360957 8.38232,-16.500812 1.8099,-2.296522 4.15054,-4.251206 6.9079,-5.285317 1.9559,-0.460809 4.07085,-0.392574 6.03171,0.04172 1.07188,0.237402 2.14169,0.72348 3.14987,1.132079 3.87337,2.136367 5.60752,5.909617 7.40305,9.75706 1.23639,2.957082 2.42446,5.970932 3.24132,9.07735 0.90698,3.44911 1.35144,7.01196 1.82994,10.53734 0.91168,6.68986 1.22947,13.4384 1.80799,20.16032 0.56949,6.0151 0.89198,12.04824 1.08628,18.08586 0.0663,2.78201 0.039,1.446 0.0839,4.00799 0.28211,16.0327 11.61894,15.83322 11.33682,-0.19948 v 0 c -0.0471,-2.6651 -0.0185,-1.27365 -0.088,-4.17432 -0.20205,-6.24103 -0.53501,-12.47751 -1.12241,-18.69541 -0.59859,-6.9092 -0.91953,-13.84678 -1.87062,-20.72202 -0.57321,-4.15966 -1.15441,-8.31265 -2.24021,-12.378458 -0.96611,-3.617621 -2.36176,-7.123762 -3.82257,-10.562994 -0.58427,-1.214345 -1.11285,-2.45709 -1.75281,-3.643035 -2.87972,-5.336652 -6.31482,-9.187041 -11.80977,-11.828183 -0.9039,-0.338465 -1.79,-0.728939 -2.7117,-1.015395 -3.96643,-1.232733 -8.2762,-1.589021 -12.36827,-0.771812 -0.89688,0.179112 -1.75703,0.508664 -2.63555,0.762997 -0.75317,0.338185 -1.52605,0.63553 -2.25951,1.014555 -3.83424,1.981369 -7.07891,4.995216 -9.64459,8.429181 -4.07982,6.175864 -7.63851,12.748645 -9.88512,19.828074 -0.75016,2.85773 -1.06982,3.60658 -1.35321,6.55928 -0.0565,0.58874 0.006,1.18289 0.0128,1.77431 0.0255,2.21236 0.0785,4.42466 0.19014,6.63453 0.13353,2.19939 0.18156,3.37479 0.4153,5.59388 0.4604,4.37098 1.34209,8.68352 2.15108,12.99897 1.49701,7.57081 2.88473,15.16372 4.48646,22.71314 0.27766,1.32527 0.69736,3.15883 0.87054,4.54785 0.0749,0.60066 -0.007,1.22317 0.13924,1.81058 0.0437,0.17587 0.003,-0.51087 0.18381,-0.51165 10.89421,-0.0468 12.49365,3.88454 11.05747,0.40181 -0.38502,-3.91028 -0.71102,-7.82547 -1.07147,-11.73789 -0.77573,-6.93601 -1.7152,-13.8514 -2.70286,-20.7602 -1.16473,-9.04833 -2.04641,-18.13286 -2.97291,-27.20767 -0.43671,-5.526008 -0.88228,-11.067655 -0.52046,-16.613241 2.26772,-15.874015 -8.95691,-17.477533 -11.22462,-1.603517 z" />
          <path
             style="fill:#00ccff;stroke:none;stroke-opacity:1;paint-order:markers fill stroke"
             id="path65"
             d="m 221.92545,110.30711 c -0.14366,-2.96092 0.18956,-5.88484 0.59324,-8.81219 0.36795,-2.549078 0.9088,-5.097688 1.9107,-7.481776 0.31881,-0.758627 1.47265,-2.985561 1.79206,-3.612681 1.25306,-2.166587 2.46853,-4.355144 3.72342,-6.520626 0.79276,-1.368004 1.26911,-2.276961 2.24736,-3.462261 0.35634,-0.431763 0.76462,-0.817888 1.14693,-1.226832 2.01507,-1.933211 4.71371,-2.646314 7.37495,-3.2124 3.36009,-0.533796 6.78967,-0.07383 10.12162,0.461573 2.21858,0.356201 4.31753,1.122768 5.65102,3.032211 0.26905,0.385251 0.47645,0.810069 0.71467,1.215104 0.6955,1.431306 1.12642,2.155975 1.5446,3.745938 0.46197,1.756395 0.88947,4.939619 1.08219,6.607852 0.38145,3.301945 0.45026,4.9946 0.6674,8.31698 0.36942,7.064028 0.38985,14.139158 0.38741,21.210768 -0.0148,6.56087 -0.0316,13.12172 -0.0412,19.6826 -0.007,4.98126 -0.008,9.96253 -0.009,14.9438 -1.6e-4,1.41856 -1.3e-4,2.83712 -9e-5,4.25567 5e-4,16.03518 11.33908,16.03483 11.33858,-3.5e-4 v 0 c -4e-5,-1.41792 -7e-5,-2.83584 9e-5,-4.25375 6.9e-4,-4.97627 0.002,-9.95253 0.009,-14.92879 0.01,-6.56514 0.0264,-13.13026 0.0412,-19.69539 0.002,-7.32189 -0.0219,-14.64747 -0.41201,-21.961168 -0.40299,-6.053172 -0.69581,-12.281758 -2.43825,-18.136268 -0.7944,-2.66915 -1.50617,-3.738252 -2.78067,-6.144428 -1.71612,-2.397157 -1.98209,-3.115923 -4.24182,-4.965939 -2.81531,-2.304873 -6.22165,-3.537433 -9.77047,-4.128708 -4.73416,-0.718268 -9.57392,-1.262319 -14.32047,-0.327057 -5.0595,1.152447 -9.67502,2.871688 -13.36129,6.71294 -0.64502,0.73698 -1.32896,1.441628 -1.93506,2.21094 -2.75556,3.497631 -4.51171,7.675295 -6.85169,11.437354 -0.83828,1.657689 -1.65804,3.197661 -2.35718,4.925651 -1.2641,3.124358 -1.98549,6.440635 -2.46838,9.765375 -0.46473,3.433928 -0.83949,6.874488 -0.69744,10.345858 0,16.03518 11.33858,16.03518 11.33858,0 z" />
        </g>
        <path
           style="fill:#00ccff;stroke:none;stroke-opacity:1;paint-order:markers fill stroke"
           id="path72"
           d="m 164.61743,128.07832 c 0.23606,3.01574 0.73388,5.99979 1.26185,8.97556 0.57863,3.85005 1.21812,7.69028 1.82873,11.53555 0.32805,2.44856 0.4951,4.91186 0.84994,7.35744 0.31041,1.74767 0.41656,3.51996 0.65517,5.27667 2.26536,15.87435 13.49023,14.2725 11.22487,-1.60186 v 0 c -0.27728,-1.77045 -0.31237,-3.57656 -0.66421,-5.33872 -0.38006,-2.48085 -0.48171,-4.99225 -0.86766,-7.47279 -0.62205,-3.91281 -1.27063,-7.82089 -1.86281,-11.73817 -0.007,-0.0392 -0.56259,-3.14895 -0.61079,-3.47915 -0.32217,-2.20728 -0.42811,-4.44756 -0.91277,-6.62947 -4.40521,-15.41821 -15.30753,-12.30326 -10.90232,3.11494 z" />
      </g>
      <g
         id="g12"
         transform="matrix(0.93177696,0,0,0.93902018,186.53917,-10.653252)">
        <path
           style="fill:#00ccff;paint-order:markers fill stroke"
           id="path10"
           d="m 143.70181,76.642481 c 0.90745,-4.486673 1.044,-9.098855 1.32775,-13.657601 0.27815,-4.881584 0.42652,-9.769184 0.53049,-14.65717 0.01,-0.324081 0.24602,-2.582158 -1.33593,0.06092 -0.20797,0.347468 0.18034,0.789573 0.27307,1.183763 0.61572,2.617344 1.20265,5.23873 1.77481,7.866046 0.74933,3.988757 1.68862,7.942085 2.39121,11.939508 0.0263,0.265951 0.0713,0.530714 0.0789,0.797853 0.004,0.130021 -0.0616,0.258649 -0.0448,0.38764 0.0147,0.11316 -0.007,-0.240619 0.0512,-0.33848 0.0701,-0.116907 0.35966,-0.138188 0.31103,-0.265539 -0.0336,-0.08811 -1.3903,-0.764642 -1.47862,-0.810167 -1.70428,-0.7752 -3.41821,-1.560398 -5.23045,-2.04748 0.36895,0.929227 -1.12012,-0.725391 -1.02077,-0.37659 0.38351,1.346421 2.03614,0.576454 2.83953,0.422754 0.66871,-0.127932 1.34168,-0.232463 2.01251,-0.348694 2.32941,-0.503461 5.35977,-0.572151 6.83851,-2.773394 0.17872,-0.266041 0.27873,-0.57722 0.4181,-0.86583 0.16705,-0.472755 0.5011,-3.367593 0.11466,-3.693177 -0.30399,-0.256117 -0.72599,-0.323975 -1.08899,-0.485963 -0.20709,0.364906 -0.49283,0.695284 -0.62126,1.094718 -0.0806,0.250587 -0.0645,2.035464 -0.0632,2.213822 0.009,1.1662 0.0462,2.320308 0.13914,3.482554 0.0814,0.44975 0.25804,3.577484 0.6479,3.731446 0.40108,0.158392 0.856,0.105276 1.284,0.157914 1.01396,-1.51749 1.62311,-3.273972 2.42722,-4.911723 0.40846,-0.753132 0.80776,-1.523818 1.36709,-2.18019 0.3677,-0.431491 0.75729,-0.741918 1.07036,-1.219521 0.015,-0.233565 0.19168,-0.518207 0.0451,-0.700697 -1.25741,-1.565772 -2.37675,0.690533 -2.74756,1.606717 -0.44976,1.292934 -0.93252,2.752843 -0.50204,4.126226 0.0839,0.267808 0.2392,0.507796 0.35879,0.761694 1.6019,1.554137 3.78165,1.525139 5.84304,1.157112 2.56845,-0.675995 4.23793,-2.573044 5.61824,-4.725787 0.54545,-1.213072 2.04244,-3.529195 1.43237,-4.93448 -0.13479,-0.310493 -0.41069,-0.538176 -0.61603,-0.807264 -0.34775,-0.129863 -0.67654,-0.332035 -1.04326,-0.38959 -1.87535,-0.294325 -3.2801,1.342582 -4.19769,2.710178 -0.80146,1.400443 -1.13992,2.886746 -0.90149,4.476412 0.68126,1.937811 2.71514,2.264743 4.51432,2.508825 2.11218,0.180995 3.79152,-0.316414 5.60156,-1.364856 1.63203,-1.186385 2.7771,-2.819785 3.66575,-4.604596 0.45064,-1.047728 0.92554,-2.635889 -0.17464,-3.494785 -0.22122,-0.172705 -0.50792,-0.238907 -0.76188,-0.358361 -2.28326,-0.287443 -3.04843,1.340419 -3.84284,3.160647 -0.60917,1.605562 -0.86506,3.28332 -0.61893,4.981362 0.89987,3.037711 3.32807,2.201239 5.60066,1.276241 3.32658,-2.174215 5.16481,-5.804198 6.98732,-9.2129 -0.33841,-0.64186 0.88934,-0.932252 0.83751,-1.503616 -0.0139,-0.153375 -0.17409,0.309221 -0.32716,0.326227 -0.28178,0.03131 -0.61254,-0.38321 -0.82718,-0.197976 -0.20354,0.175661 0.0836,0.531313 0.13521,0.795168 0.0659,0.336952 0.14496,0.671211 0.21745,1.006817 0.34511,1.695126 1.30472,3.402599 1.0956,5.161023 -0.20866,0.606007 -1.50384,2.278379 0.9581,1.456071 0.33363,-0.111434 0.2602,-0.653606 0.38829,-0.9812 0.1814,-0.463932 0.36012,-0.928908 0.54018,-1.393362 1.23282,-3.684529 2.02454,-7.498797 2.51487,-11.347993 0.16906,-1.481379 0.27858,-2.96844 0.3596,-4.456915 0.0168,-0.309239 0.028,-0.618767 0.0447,-0.928016 0.006,-0.112964 0.13587,-0.325668 0.0235,-0.338569 -0.51597,-0.05923 -1.03298,0.108931 -1.54946,0.163397 -0.58532,3.618346 -1.01146,7.258336 -1.50453,10.889437 -0.23488,1.495412 -0.39148,3.001888 -0.6097,4.499557 -0.0324,0.222069 -0.18113,0.450425 -0.11187,0.663883 0.0462,0.142454 0.0489,-0.376878 0.19612,-0.404235 0.42274,-0.07854 0.85562,0.08623 1.28343,0.129349 0.37448,-2.195116 0.92292,-4.383104 2.0685,-6.308526 0.20999,-0.222084 0.37861,-0.484617 0.68524,-0.580246 0.029,-0.0091 0.10755,0.03615 0.0788,0.04609 -0.13013,0.04499 -0.31187,-0.03149 -0.40752,0.06756 -0.0751,0.07775 0.0171,0.215557 0.0306,0.322797 0.0337,0.268593 0.0739,0.536329 0.11088,0.804494 0.29787,2.086694 -0.075,4.257195 0.47603,6.310491 0.0861,0.320681 0.22636,0.624288 0.33954,0.936432 0.2245,0.253941 0.39015,0.575831 0.67351,0.761825 2.21282,1.452448 4.12273,-1.769894 5.08468,-3.221385 0.83026,-1.471094 1.8384,-2.960938 2.13883,-4.660994 0.0304,-0.17196 0.16812,-0.470241 0.002,-0.52387 -0.49955,-0.161204 -1.04977,0.0109 -1.57465,0.01635 -0.38804,1.582239 -0.92741,3.310561 -0.58836,4.954292 0.0571,0.276993 0.18119,0.535842 0.27179,0.803763 0.18858,0.197643 0.3033,0.517101 0.56574,0.59293 2.11808,0.611987 2.78602,-2.509729 3.08852,-3.907587 0.10934,-1.005331 -0.17966,-3.424021 -1.85546,-2.415192 -0.22239,0.133882 -0.29657,0.426126 -0.44485,0.63919 -0.40148,1.208347 -0.75381,2.720927 0.27972,3.741295 0.24053,0.237465 0.56205,0.375603 0.84307,0.563404 1.08154,0.451304 1.99784,0.175383 3.02995,-0.209354 1.99015,-0.781312 1.43768,-2.18856 -0.55247,-1.407248 v 0 c -0.5694,0.240813 -1.06913,0.494236 -1.70217,0.318733 -0.13857,-0.06332 -0.5571,-0.211777 -0.66675,-0.389764 -0.34475,-0.559624 0.002,-1.33336 0.10345,-1.907239 -0.20007,-0.289751 0.18548,0.224699 -0.57271,-0.172221 -0.0905,-0.04739 -0.10957,-0.172852 -0.15578,-0.263979 -0.025,-0.04931 0.0741,0.08572 0.0919,0.138048 0.13749,0.403741 0.10501,0.603212 0.12241,1.05419 -0.17032,0.84637 -0.14218,0.911274 -0.47375,1.721676 -0.0943,0.230508 -0.21737,0.448178 -0.32599,0.672297 -0.0561,0.115691 -0.19461,0.221338 -0.16808,0.347134 0.10341,0.490467 0.47821,0.167705 0.21274,0.363561 -0.61035,-1.465712 -0.0451,-3.084152 0.25256,-4.568481 -0.42926,-0.188156 -0.85972,-0.373611 -1.2878,-0.564466 -0.24043,-0.107198 -0.071,0.524918 -0.15507,0.774375 -0.41476,1.230373 -1.07666,2.348876 -1.74087,3.45689 -0.29342,0.447427 -1.99869,3.180906 -2.76214,2.976125 -0.12336,-0.03309 -0.21195,-0.142589 -0.31792,-0.213884 -0.86222,-2.214977 -0.43242,-4.625673 -0.73686,-6.944015 -0.075,-0.462498 -0.167,-1.550059 -0.54472,-1.946694 -1.05339,-1.106143 -2.06888,-0.10123 -2.75182,0.747458 -1.23014,2.120056 -1.88102,4.486535 -2.26635,6.899147 0.38509,0.410558 0.64435,0.99541 1.15526,1.231674 0.28716,0.132792 0.39503,-0.682087 0.47738,-1.246842 0.2182,-1.496266 0.37418,-3.001428 0.60915,-4.495422 0.49213,-3.62615 0.91797,-7.261088 1.50242,-10.874473 -0.48492,-0.161863 -0.94508,-0.445733 -1.45474,-0.485588 -0.1232,-0.0096 -0.0187,0.246457 -0.0253,0.36985 -0.0164,0.303757 -0.0273,0.607792 -0.0438,0.911543 -0.0789,1.454571 -0.18554,2.907773 -0.35018,4.35546 -0.47215,3.728032 -1.24014,7.421107 -2.4247,10.992043 -0.17891,0.461517 -0.35681,0.923427 -0.53673,1.38455 -0.11958,0.306475 -0.46522,0.60595 -0.36177,0.918238 0.96966,2.92702 1.65528,0.115884 1.92903,-0.723815 0.0171,-0.346449 0.0718,-0.693089 0.0512,-1.039346 -0.0857,-1.442777 -0.88587,-3.132496 -1.17679,-4.555958 -0.20877,-0.95948 -0.14776,-2.33149 -1.32229,-2.761459 -0.66111,-0.242017 -1.34217,1.764074 -1.52431,1.942373 -1.65853,3.103129 -3.31037,6.431629 -6.23693,8.530693 -0.61188,0.263924 -2.36693,1.119879 -3.09828,0.663214 -0.26635,-0.166315 -0.33073,-0.51643 -0.42551,-0.775996 -0.2373,-1.407543 0.0346,-2.815581 0.51316,-4.151228 0.22378,-0.52646 0.79468,-1.868911 1.28703,-2.200412 0.16226,-0.109248 0.47252,-0.117769 0.6576,-0.135704 0.87405,-0.106894 0.25448,1.408396 0.0913,1.759871 -0.74767,1.524406 -1.71437,2.925067 -3.07482,3.970272 -1.45138,0.862125 -2.92675,1.321884 -4.63762,1.170691 -1.03631,-0.135212 -2.66109,-0.242044 -3.22236,-1.256475 -0.22487,-1.196188 0.10069,-2.334627 0.6722,-3.398295 0.67868,-1.054239 1.52895,-2.109967 2.89235,-2.101001 0.0736,0.0191 0.16747,0.0031 0.22086,0.0573 0.53106,0.538811 -0.96476,3.272278 -1.22722,3.822606 -1.13099,1.801762 -2.49254,3.439978 -4.61571,4.049319 -1.44544,0.275948 -2.88199,0.329661 -4.22921,-0.370119 -0.71187,-1.111149 -0.17697,-2.503237 0.21183,-3.639223 0.1302,-0.353967 0.1767,-0.554544 0.37858,-0.85964 0.0586,-0.08855 0.15608,-0.149733 0.20446,-0.244247 0.0132,-0.02582 -0.0186,-0.05764 -0.0398,-0.07739 -0.21429,-0.199234 -0.52527,-0.31736 -0.66264,-0.575711 -0.0746,-0.140328 0.0732,-0.309312 0.10984,-0.463967 -0.11461,0.338648 -0.77745,0.840822 -0.97794,1.080476 -0.61339,0.733197 -1.0642,1.58175 -1.51347,2.419493 -0.6905,1.408876 -1.40691,2.865185 -1.92594,4.331422 0.3072,0.13562 0.60444,0.296531 0.92161,0.40686 0.0433,0.01506 -0.0625,-0.07017 -0.0778,-0.113348 -0.049,-0.13782 -0.0891,-0.279707 -0.1134,-0.423964 -0.1466,-0.87028 -0.16982,-1.762336 -0.29938,-2.634938 -0.0921,-1.120548 -0.12466,-2.234052 -0.13419,-3.358571 -0.003,-0.371645 -0.005,-0.743356 5e-4,-1.114975 0.004,-0.25856 0.13714,-0.541207 0.0273,-0.775286 -0.0544,-0.115841 -0.25571,0.01084 -0.38356,0.01626 -0.28158,-0.188717 -0.53539,-0.427543 -0.84472,-0.566152 -0.0712,-0.03189 0.0658,0.144066 0.0755,0.221454 0.0257,0.205872 0.0239,0.4143 0.0296,0.621685 0.0169,0.618293 0.009,1.240011 -0.13611,1.845202 -0.17815,0.449183 -0.23179,0.716644 -0.60931,1.069047 -1.43645,1.340885 -3.75741,1.221608 -5.52723,1.701193 -1.02109,0.177492 -4.89424,0.608947 -5.53358,1.548855 -0.79199,1.164325 1.0318,1.566759 1.57243,1.704289 1.70979,0.448642 3.31727,1.213479 4.92708,1.930671 0.75767,0.38923 1.90747,1.301628 2.8211,0.897898 0.82713,-0.365507 0.48469,-1.673211 0.44187,-2.275357 -0.70711,-4.017282 -1.6485,-7.990836 -2.40297,-11.999317 -0.45739,-2.100171 -0.79475,-3.681648 -1.27392,-5.760657 -0.16353,-0.709551 -0.33809,-1.416519 -0.50535,-2.125204 -0.10004,-0.423905 0.0448,-1.002044 -0.29653,-1.272559 -0.42443,-0.336352 -1.07713,-0.346292 -1.60738,-0.236233 -0.18726,0.03887 -0.0116,0.382321 -0.0174,0.573482 -0.10351,4.867385 -0.25111,9.73439 -0.52791,14.595411 -0.27695,4.450863 -0.41414,8.951225 -1.2725,13.336178 -0.58736,2.055761 0.86628,2.471088 1.45364,0.415327 z" />
        <path
           style="fill:#00ccff;paint-order:markers fill stroke"
           id="path11"
           d="m 147.94537,75.492334 c 5.83237,-1.652797 11.8508,-2.546556 17.79033,-3.716624 4.8778,-0.960912 8.60431,-1.782076 13.45661,-2.823713 7.28998,-1.551186 14.56631,-3.209795 21.93147,-4.373691 0.41625,-0.05563 0.8325,-0.111264 1.24875,-0.166896 2.11913,-0.283589 1.9186,-1.782042 -0.20053,-1.498453 v 0 c -0.4281,0.05736 -0.85621,0.114724 -1.28431,0.172085 -7.39221,1.169244 -14.69603,2.830392 -22.0127,4.38882 -4.82455,1.035727 -8.57029,1.86097 -13.41939,2.81621 -5.96854,1.175763 -12.01579,2.075658 -17.8769,3.73559 -2.07418,0.518547 -1.70752,1.985219 0.36667,1.466672 z" />
      </g>
    </g>
  </g>
</svg>
