<svg xmlns="http://www.w3.org/2000/svg" viewBox="0 0 500 500" width="500" height="500">
  <defs>
    <radialGradient id="sphereGrad" cx="40%" cy="35%" r="60%">
      <stop offset="0%" stop-color="#1a1a3e" stop-opacity="0.15"/>
      <stop offset="100%" stop-color="#0d0d2b" stop-opacity="0.05"/>
    </radialGradient>
  </defs>
  <rect width="500" height="500" fill="#0d1117" rx="12"/>
  <text x="250" y="35" fill="#e0e0e0" font-family="monospace" font-size="16" text-anchor="middle" font-weight="bold">Bloch Sphere</text>
  <circle cx="250" cy="260" r="170" fill="url(#sphereGrad)" stroke="#4fc3f7" stroke-width="1.5" stroke-opacity="0.3"/>
  <ellipse cx="250" cy="260" rx="170" ry="55" fill="none" stroke="#4fc3f7" stroke-width="0.8" stroke-opacity="0.2" stroke-dasharray="6,4"/>
  <line x1="250" y1="70" x2="250" y2="450" stroke="#4fc3f7" stroke-width="1.2" stroke-opacity="0.5"/>
  <polygon points="250,68 255,78 245,78" fill="#4fc3f7"/>
  <text x="260" y="80" fill="#4fc3f7" font-family="monospace" font-size="14" font-weight="bold">|0&#x27E9;</text>
  <text x="260" y="455" fill="#4fc3f7" font-family="monospace" font-size="14" font-weight="bold">|1&#x27E9;</text>
  <line x1="60" y1="260" x2="440" y2="260" stroke="#66bb6a" stroke-width="1.2" stroke-opacity="0.5"/>
  <text x="445" y="280" fill="#66bb6a" font-family="monospace" font-size="14" font-weight="bold">|+&#x27E9;</text>
  <line x1="250" y1="260" x2="370" y2="150" stroke="#ef5350" stroke-width="2.5"/>
  <polygon points="368,152 360,146 375,144" fill="#ef5350"/>
  <path d="M 250,200 A 60,60 0 0,1 275,215" fill="none" stroke="#ffa726" stroke-width="1.5"/>
  <text x="230" y="210" fill="#ffa726" font-family="monospace" font-size="13">&#x3B8;</text>
  <path d="M 260,260 A 40,13 0 0,1 290,258" fill="none" stroke="#ce93d8" stroke-width="1.5"/>
  <text x="290" y="272" fill="#ce93d8" font-family="monospace" font-size="13">&#x3C6;</text>
  <text x="375" y="145" fill="#ef5350" font-family="monospace" font-size="15" font-weight="bold">|&#x3C8;&#x27E9;</text>
  <text x="250" y="480" fill="#9e9e9e" font-family="monospace" font-size="11" text-anchor="middle">|&#x3C8;&#x27E9; = cos(&#x3B8;)|0&#x27E9; + e&#x2071;&#x3C6;sin(&#x3B8;)|1&#x27E9;</text>
</svg>