<svg xmlns="http://www.w3.org/2000/svg" viewBox="0 0 700 480" width="700" height="480">
  <rect width="700" height="480" fill="#0d1117" rx="12"/>
  <text x="350" y="30" fill="#e0e0e0" font-family="monospace" font-size="15" text-anchor="middle" font-weight="bold">Surface Code: Quantum Error Correction</text>
  <text x="85" y="80" fill="#4fc3f7" font-family="monospace" font-size="11" text-anchor="middle" font-weight="bold">Data Qubit</text>
  <text x="270" y="80" fill="#ce93d8" font-family="monospace" font-size="11" text-anchor="middle" font-weight="bold">Ancilla (measure)</text>
  <circle cx="145" cy="98" r="14" fill="#1a237e" fill-opacity="0.4" stroke="#4fc3f7" stroke-width="2"/>
  <rect x="184" y="86" width="22" height="22" rx="3" fill="#4a148c" fill-opacity="0.4" stroke="#ce93d8" stroke-width="2"/>
  <circle cx="225" cy="98" r="14" fill="#1a237e" fill-opacity="0.4" stroke="#4fc3f7" stroke-width="2"/>
  <rect x="264" y="86" width="22" height="22" rx="3" fill="#4a148c" fill-opacity="0.4" stroke="#ce93d8" stroke-width="2"/>
  <circle cx="305" cy="98" r="14" fill="#1a237e" fill-opacity="0.4" stroke="#4fc3f7" stroke-width="2"/>
  <rect x="344" y="86" width="22" height="22" rx="3" fill="#4a148c" fill-opacity="0.4" stroke="#ce93d8" stroke-width="2"/>
  <circle cx="385" cy="98" r="14" fill="#1a237e" fill-opacity="0.4" stroke="#4fc3f7" stroke-width="2"/>
  <rect x="424" y="86" width="22" height="22" rx="3" fill="#4a148c" fill-opacity="0.4" stroke="#ce93d8" stroke-width="2"/>
  <circle cx="465" cy="98" r="14" fill="#1a237e" fill-opacity="0.4" stroke="#4fc3f7" stroke-width="2"/>
  <rect x="131" y="138" width="22" height="22" rx="3" fill="#4a148c" fill-opacity="0.4" stroke="#ce93d8" stroke-width="2"/>
  <circle cx="195" cy="148" r="14" fill="#1a237e" fill-opacity="0.4" stroke="#4fc3f7" stroke-width="2"/>
  <rect x="225" y="138" width="22" height="22" rx="3" fill="#4a148c" fill-opacity="0.4" stroke="#ce93d8" stroke-width="2"/>
  <circle cx="275" cy="148" r="14" fill="#1a237e" fill-opacity="0.4" stroke="#4fc3f7" stroke-width="2"/>
  <rect x="305" y="138" width="22" height="22" rx="3" fill="#4a148c" fill-opacity="0.4" stroke="#ce93d8" stroke-width="2"/>
  <circle cx="355" cy="148" r="14" fill="#1a237e" fill-opacity="0.4" stroke="#4fc3f7" stroke-width="2"/>
  <rect x="385" y="138" width="22" height="22" rx="3" fill="#4a148c" fill-opacity="0.4" stroke="#ce93d8" stroke-width="2"/>
  <circle cx="435" cy="148" r="14" fill="#1a237e" fill-opacity="0.4" stroke="#4fc3f7" stroke-width="2"/>
  <circle cx="145" cy="198" r="14" fill="#1a237e" fill-opacity="0.4" stroke="#4fc3f7" stroke-width="2"/>
  <rect x="184" y="186" width="22" height="22" rx="3" fill="#4a148c" fill-opacity="0.4" stroke="#ce93d8" stroke-width="2"/>
  <circle cx="225" cy="198" r="14" fill="#1a237e" fill-opacity="0.4" stroke="#4fc3f7" stroke-width="2"/>
  <rect x="264" y="186" width="22" height="22" rx="3" fill="#4a148c" fill-opacity="0.4" stroke="#ce93d8" stroke-width="2"/>
  <circle cx="305" cy="198" r="20" fill="#b71c1c" fill-opacity="0.2" stroke="#ef5350" stroke-width="2.5" stroke-dasharray="5,3"/>
  <rect x="344" y="186" width="22" height="22" rx="3" fill="#4a148c" fill-opacity="0.4" stroke="#ce93d8" stroke-width="2"/>
  <circle cx="385" cy="198" r="14" fill="#1a237e" fill-opacity="0.4" stroke="#4fc3f7" stroke-width="2"/>
  <rect x="424" y="186" width="22" height="22" rx="3" fill="#4a148c" fill-opacity="0.4" stroke="#ce93d8" stroke-width="2"/>
  <circle cx="465" cy="198" r="14" fill="#1a237e" fill-opacity="0.4" stroke="#4fc3f7" stroke-width="2"/>
  <text x="305" y="173" fill="#ef5350" font-family="monospace" font-size="9" text-anchor="middle" font-weight="bold">ERROR</text>
  <rect x="131" y="238" width="22" height="22" rx="3" fill="#4a148c" fill-opacity="0.4" stroke="#ce93d8" stroke-width="2"/>
  <circle cx="195" cy="248" r="14" fill="#1a237e" fill-opacity="0.4" stroke="#4fc3f7" stroke-width="2"/>
  <rect x="225" y="238" width="22" height="22" rx="3" fill="#4a148c" fill-opacity="0.4" stroke="#ce93d8" stroke-width="2"/>
  <circle cx="275" cy="248" r="14" fill="#1a237e" fill-opacity="0.4" stroke="#4fc3f7" stroke-width="2"/>
  <rect x="305" y="238" width="22" height="22" rx="3" fill="#4a148c" fill-opacity="0.4" stroke="#ce93d8" stroke-width="2"/>
  <circle cx="355" cy="248" r="14" fill="#1a237e" fill-opacity="0.4" stroke="#4fc3f7" stroke-width="2"/>
  <rect x="385" y="238" width="22" height="22" rx="3" fill="#4a148c" fill-opacity="0.4" stroke="#ce93d8" stroke-width="2"/>
  <circle cx="435" cy="248" r="14" fill="#1a237e" fill-opacity="0.4" stroke="#4fc3f7" stroke-width="2"/>
  <text x="540" y="130" fill="#ffa726" font-family="monospace" font-size="10" text-anchor="start">Ancilla qubits detect</text>
  <text x="540" y="145" fill="#ffa726" font-family="monospace" font-size="10" text-anchor="start">parity changes without</text>
  <text x="540" y="160" fill="#ffa726" font-family="monospace" font-size="10" text-anchor="start">measuring data qubits</text>
  <rect x="40" y="340" width="620" height="120" rx="8" fill="#263238" stroke="#546e7a" stroke-width="1"/>
  <circle cx="70" cy="370" r="8" fill="#1a237e" fill-opacity="0.4" stroke="#4fc3f7" stroke-width="2"/>
  <text x="90" y="375" fill="#4fc3f7" font-family="monospace" font-size="11">Data qubit: stores quantum information</text>
  <rect x="62" y="392" width="16" height="16" rx="2" fill="#4a148c" fill-opacity="0.4" stroke="#ce93d8" stroke-width="2"/>
  <text x="90" y="405" fill="#ce93d8" font-family="monospace" font-size="11">Ancilla qubit: measures stabilizers (parity checks)</text>
  <circle cx="70" cy="430" r="12" fill="none" stroke="#ef5350" stroke-width="2.5" stroke-dasharray="4,3"/>
  <text x="90" y="435" fill="#ef5350" font-family="monospace" font-size="11">Error detected via syndrome measurement</text>
  <text x="350" y="455" fill="#546e7a" font-family="monospace" font-size="10" text-anchor="middle">Surface code threshold: ~1% physical error rate. Current hardware: 0.1%-1%</text>
</svg>